<svg width="71" height="101" viewBox="0 0 71 101" fill="none" xmlns="http://www.w3.org/2000/svg">
<path fill-rule="evenodd" clip-rule="evenodd" d="M17.8096 4.72403C28.8275 -1.6779 42.3704 -1.566 53.285 5.01714C64.0923 11.7344 70.6607 23.7226 70.5995 36.6186C70.348 49.43 63.3048 61.4727 54.5008 70.7824C49.4194 76.1798 43.735 80.9525 37.5636 85.003C36.928 85.3705 36.2318 85.6166 35.5094 85.729C34.814 85.6994 34.1369 85.4939 33.539 85.1311C24.1172 79.045 15.8515 71.2763 9.13937 62.1987C3.52289 54.6213 0.331996 45.4667 5.86791e-06 35.978C-0.00729119 23.0573 6.79158 11.126 17.8096 4.72403ZM24.1755 41.3259C26.0289 45.895 30.4036 48.8754 35.257 48.8754C38.4365 48.8983 41.4929 47.6247 43.7452 45.3385C45.9975 43.0523 47.2584 39.9434 47.2472 36.7046C47.2641 31.7608 44.3536 27.2943 39.8745 25.3904C35.3955 23.4865 30.2314 24.5208 26.7936 28.0105C23.3557 31.5002 22.3222 36.7568 24.1755 41.3259Z" fill="white"/>
<ellipse opacity="0.4" cx="35.2989" cy="95.8141" rx="25.2144" ry="5.04288" fill="white"/>
</svg>
